<mxfile host="Electron" agent="Mozilla/5.0 (Windows NT 10.0; Win64; x64) AppleWebKit/537.36 (KHTML, like Gecko) draw.io/28.1.2 Chrome/138.0.7204.243 Electron/37.4.0 Safari/537.36" version="28.1.2">
  <diagram id="STATmjy3AcgogcaYLQfj" name="Seite-1">
    <mxGraphModel dx="1426" dy="962" grid="1" gridSize="10" guides="1" tooltips="1" connect="1" arrows="1" fold="1" page="1" pageScale="1" pageWidth="1169" pageHeight="827" math="0" shadow="0">
      <root>
        <mxCell id="0" />
        <mxCell id="1" parent="0" />
        <mxCell id="j-LpTXnSDLAkQ5Fwcx-e-2" value="&lt;font size=&quot;1&quot; style=&quot;&quot;&gt;&lt;b style=&quot;font-size: 14px;&quot;&gt;Project&#39;s CI/CD Pipeline&lt;/b&gt;&lt;/font&gt;" style="rounded=1;whiteSpace=wrap;html=1;fontSize=14;verticalAlign=top;arcSize=5;fillColor=#00B3F0;strokeColor=none;fontColor=#FFFFFF;fillStyle=solid;fontFamily=Poppins;fontSource=https%3A%2F%2Ffonts.googleapis.com%2Fcss%3Ffamily%3DPoppins;convertToSvg=0;" parent="1" vertex="1">
          <mxGeometry x="280" y="360" width="680" height="340" as="geometry" />
        </mxCell>
        <mxCell id="j-LpTXnSDLAkQ5Fwcx-e-1" value="" style="rounded=1;whiteSpace=wrap;html=1;arcSize=22;fillColor=#00B3F0;fontSize=14;verticalAlign=middle;strokeColor=none;fontColor=#FFFFFF;fillStyle=solid;fontFamily=Poppins;fontSource=https%3A%2F%2Ffonts.googleapis.com%2Fcss%3Ffamily%3DPoppins;convertToSvg=0;" parent="1" vertex="1">
          <mxGeometry x="280" y="260" width="680" height="80" as="geometry" />
        </mxCell>
        <mxCell id="dVCOaSC8vIDKI8lkODle-1" value="" style="verticalLabelPosition=bottom;html=1;verticalAlign=top;align=center;shape=mxgraph.azure.user;fillColor=#00B3F0;strokeColor=none;fillStyle=solid;fontFamily=Poppins;fontSource=https%3A%2F%2Ffonts.googleapis.com%2Fcss%3Ffamily%3DPoppins;whiteSpace=wrap;convertToSvg=0;" parent="1" vertex="1">
          <mxGeometry x="596.25" y="140" width="47.5" height="50" as="geometry" />
        </mxCell>
        <mxCell id="fMwtxH5dKlocwOvATL96-1" value="&lt;font size=&quot;1&quot; style=&quot;&quot;&gt;&lt;b style=&quot;font-size: 14px;&quot;&gt;GitLab CI Templates / GitHub Actions&lt;/b&gt;&lt;/font&gt;" style="rounded=1;whiteSpace=wrap;html=1;fontSize=14;verticalAlign=top;arcSize=13;fillColor=#0086B4;strokeColor=none;fontColor=#FFFFFF;fillStyle=solid;fontFamily=Poppins;fontSource=https%3A%2F%2Ffonts.googleapis.com%2Fcss%3Ffamily%3DPoppins;convertToSvg=0;" parent="1" vertex="1">
          <mxGeometry x="300" y="480" width="640" height="200" as="geometry" />
        </mxCell>
        <mxCell id="j-LpTXnSDLAkQ5Fwcx-e-7" value="&lt;b&gt;SCA / SBOM&lt;/b&gt;&lt;br&gt;&lt;br&gt;&lt;br&gt;Dep. Check&lt;br&gt;Dep. Track&lt;br&gt;Grype&lt;br&gt;Trivy (Operator)&lt;div&gt;&lt;br&gt;&lt;/div&gt;&lt;div&gt;CycloneDX&lt;/div&gt;&lt;div&gt;SPDX&lt;/div&gt;" style="text;html=1;align=center;verticalAlign=top;resizable=0;points=[];autosize=1;strokeColor=none;fillColor=none;fontSize=12;fontColor=#FFFFFF;fontFamily=Poppins;fontSource=https%3A%2F%2Ffonts.googleapis.com%2Fcss%3Ffamily%3DPoppins;convertToSvg=0;" parent="1" vertex="1">
          <mxGeometry x="305" y="516" width="120" height="160" as="geometry" />
        </mxCell>
        <mxCell id="j-LpTXnSDLAkQ5Fwcx-e-8" value="&lt;b&gt;SAST &lt;br&gt;Application&lt;br&gt;&lt;/b&gt;&lt;br&gt;Bandit&lt;br&gt;ESLint&lt;br&gt;FindSecBugs&lt;br&gt;Semgrep&lt;div&gt;&lt;br&gt;&lt;/div&gt;&lt;div&gt;SARIF&lt;/div&gt;" style="text;html=1;align=center;verticalAlign=top;resizable=0;points=[];autosize=1;strokeColor=none;fillColor=none;fontSize=12;fontColor=#FFFFFF;fontFamily=Poppins;fontSource=https%3A%2F%2Ffonts.googleapis.com%2Fcss%3Ffamily%3DPoppins;convertToSvg=0;" parent="1" vertex="1">
          <mxGeometry x="418" y="516" width="100" height="140" as="geometry" />
        </mxCell>
        <mxCell id="j-LpTXnSDLAkQ5Fwcx-e-9" value="&lt;b&gt;SAST&lt;br&gt;Infrastructure&lt;br&gt;&lt;/b&gt;&lt;br&gt;Checkov&lt;br&gt;KICS&lt;br&gt;Trivy&lt;div&gt;&lt;br&gt;&lt;/div&gt;&lt;div&gt;&lt;br&gt;&lt;/div&gt;&lt;div&gt;SARIF&lt;/div&gt;" style="text;html=1;align=center;verticalAlign=top;resizable=0;points=[];autosize=1;strokeColor=none;fillColor=none;fontSize=12;fontColor=#FFFFFF;fontFamily=Poppins;fontSource=https%3A%2F%2Ffonts.googleapis.com%2Fcss%3Ffamily%3DPoppins;convertToSvg=0;" parent="1" vertex="1">
          <mxGeometry x="517" y="516" width="110" height="140" as="geometry" />
        </mxCell>
        <mxCell id="j-LpTXnSDLAkQ5Fwcx-e-10" value="&lt;b&gt;DAST&lt;br&gt;&lt;/b&gt;&lt;br&gt;&lt;br&gt;Cryptolyzer&lt;br&gt;DrHeader&lt;br&gt;ZAP" style="text;html=1;align=center;verticalAlign=top;resizable=0;points=[];autosize=1;strokeColor=none;fillColor=none;fontSize=12;fontColor=#FFFFFF;fontFamily=Poppins;fontSource=https%3A%2F%2Ffonts.googleapis.com%2Fcss%3Ffamily%3DPoppins;convertToSvg=0;" parent="1" vertex="1">
          <mxGeometry x="734" y="516" width="90" height="100" as="geometry" />
        </mxCell>
        <mxCell id="j-LpTXnSDLAkQ5Fwcx-e-11" value="&lt;b&gt;Cloud&lt;br&gt;Infastructure&lt;/b&gt;&lt;br&gt;&lt;br&gt;Prowler&lt;br&gt;Azure Defender&lt;div&gt;Trivy Operator&lt;/div&gt;" style="text;html=1;align=center;verticalAlign=top;resizable=0;points=[];autosize=1;strokeColor=none;fillColor=none;fontSize=12;fontColor=#FFFFFF;fontFamily=Poppins;fontSource=https%3A%2F%2Ffonts.googleapis.com%2Fcss%3Ffamily%3DPoppins;convertToSvg=0;" parent="1" vertex="1">
          <mxGeometry x="827.0923076923076" y="516" width="110" height="100" as="geometry" />
        </mxCell>
        <mxCell id="j-LpTXnSDLAkQ5Fwcx-e-12" value="&lt;b&gt;Secrets&lt;br&gt;&lt;/b&gt;&lt;br&gt;&lt;br&gt;GitLeaks&lt;div&gt;Trivy (Operator)&lt;br&gt;&lt;/div&gt;" style="text;html=1;align=center;verticalAlign=top;resizable=0;points=[];autosize=1;strokeColor=none;fillColor=none;fontSize=12;fontColor=#FFFFFF;fontFamily=Poppins;fontSource=https%3A%2F%2Ffonts.googleapis.com%2Fcss%3Ffamily%3DPoppins;convertToSvg=0;" parent="1" vertex="1">
          <mxGeometry x="615" y="516" width="120" height="90" as="geometry" />
        </mxCell>
        <mxCell id="RIjHbWsgnGcoFi8NW99y-1" value="" style="group;html=1;whiteSpace=wrap;convertToSvg=0;" parent="1" vertex="1" connectable="0">
          <mxGeometry x="400" y="400" width="440" height="60" as="geometry" />
        </mxCell>
        <mxCell id="j-LpTXnSDLAkQ5Fwcx-e-4" value="Upload" style="rounded=0;whiteSpace=wrap;html=1;fontSize=12;fillColor=#0086B4;fontColor=#ffffff;strokeColor=#FFFFFF;fillStyle=solid;fontFamily=Poppins;fontSource=https%3A%2F%2Ffonts.googleapis.com%2Fcss%3Ffamily%3DPoppins;convertToSvg=0;" parent="RIjHbWsgnGcoFi8NW99y-1" vertex="1">
          <mxGeometry x="160" width="120" height="60" as="geometry" />
        </mxCell>
        <mxCell id="j-LpTXnSDLAkQ5Fwcx-e-5" value="Check&lt;br&gt;Security Gate" style="rounded=0;whiteSpace=wrap;html=1;fontSize=12;fillColor=#0086B4;fontColor=#ffffff;strokeColor=#FFFFFF;fillStyle=solid;fontFamily=Poppins;fontSource=https%3A%2F%2Ffonts.googleapis.com%2Fcss%3Ffamily%3DPoppins;convertToSvg=0;" parent="RIjHbWsgnGcoFi8NW99y-1" vertex="1">
          <mxGeometry x="320" width="120" height="60" as="geometry" />
        </mxCell>
        <mxCell id="EUJWmZ1f04lpSAxQ6ohb-9" value="Scan" style="rounded=0;whiteSpace=wrap;html=1;fontSize=12;fillColor=#0086B4;fontColor=#ffffff;strokeColor=#FFFFFF;fillStyle=solid;fontFamily=Poppins;fontSource=https%3A%2F%2Ffonts.googleapis.com%2Fcss%3Ffamily%3DPoppins;convertToSvg=0;" parent="RIjHbWsgnGcoFi8NW99y-1" vertex="1">
          <mxGeometry width="120" height="60" as="geometry" />
        </mxCell>
        <mxCell id="eXSKlC2B0oTyvs4yx1Oc-1" value="" style="shape=image;aspect=fixed;image=data:image/svg+xml,PD94bWwgdmVyc2lvbj0iMS4wIiBlbmNvZGluZz0iVVRGLTgiIHN0YW5kYWxvbmU9Im5vIj8+CjxzdmcKICAgdmlld0JveD0iMCAwIDQyMjcuNjMxOCA0NDgiCiAgIHZlcnNpb249IjEuMSIKICAgaWQ9InN2ZzQiCiAgIHNvZGlwb2RpOmRvY25hbWU9InNlY29ic2VydmVfd2hpdGUuc3ZnIgogICBpbmtzY2FwZTpleHBvcnQtZmlsZW5hbWU9IkZvbnRfQXdlc29tZV81X3NvbGlkX2Jpbm9jdWxhcnMucG5nIgogICBpbmtzY2FwZTpleHBvcnQteGRwaT0iMzIzLjQ3IgogICBpbmtzY2FwZTpleHBvcnQteWRwaT0iMzIzLjQ3IgogICBpbmtzY2FwZTp2ZXJzaW9uPSIxLjQuMiAoZWJmMGU5NCwgMjAyNS0wNS0wOCkiCiAgIHdpZHRoPSI0MjI3LjYzMTgiCiAgIGhlaWdodD0iNDQ4IgogICB4bWxuczppbmtzY2FwZT0iaHR0cDovL3d3dy5pbmtzY2FwZS5vcmcvbmFtZXNwYWNlcy9pbmtzY2FwZSIKICAgeG1sbnM6c29kaXBvZGk9Imh0dHA6Ly9zb2RpcG9kaS5zb3VyY2Vmb3JnZS5uZXQvRFREL3NvZGlwb2RpLTAuZHRkIgogICB4bWxucz0iaHR0cDovL3d3dy53My5vcmcvMjAwMC9zdmciCiAgIHhtbG5zOnN2Zz0iaHR0cDovL3d3dy53My5vcmcvMjAwMC9zdmciPgogIDxkZWZzCiAgICAgaWQ9ImRlZnM4IiAvPgogIDxzb2RpcG9kaTpuYW1lZHZpZXcKICAgICBpZD0ibmFtZWR2aWV3NiIKICAgICBwYWdlY29sb3I9IiNmZmZmZmYiCiAgICAgYm9yZGVyY29sb3I9IiM2NjY2NjYiCiAgICAgYm9yZGVyb3BhY2l0eT0iMS4wIgogICAgIGlua3NjYXBlOnNob3dwYWdlc2hhZG93PSIyIgogICAgIGlua3NjYXBlOnBhZ2VvcGFjaXR5PSIwLjAiCiAgICAgaW5rc2NhcGU6cGFnZWNoZWNrZXJib2FyZD0iMCIKICAgICBpbmtzY2FwZTpkZXNrY29sb3I9IiNkMWQxZDEiCiAgICAgc2hvd2dyaWQ9ImZhbHNlIgogICAgIGlua3NjYXBlOnpvb209IjAuNDc4NjY2OCIKICAgICBpbmtzY2FwZTpjeD0iMTA0Ny43MDE3IgogICAgIGlua3NjYXBlOmN5PSI0ODAuNTAxMjYiCiAgICAgaW5rc2NhcGU6Y3VycmVudC1sYXllcj0ic3ZnNCIgLz4KICA8ZwogICAgIGFyaWEtbGFiZWw9IlNlY09ic2VydmUiCiAgICAgaWQ9InRleHQxNjQiCiAgICAgc3R5bGU9ImZvbnQtc2l6ZTo2MTcuOTMxcHg7bGluZS1oZWlnaHQ6Mzg2LjIwN3B4O2ZvbnQtZmFtaWx5OidCaXRzdHJlYW0gVmVyYSBTYW5zJztsZXR0ZXItc3BhY2luZzowcHg7d29yZC1zcGFjaW5nOjBweDtmaWxsOiNmZmZmZmY7ZmlsbC1vcGFjaXR5OjE7c3Ryb2tlLXdpZHRoOjE1LjQ0ODNweCIKICAgICB0cmFuc2Zvcm09InRyYW5zbGF0ZSgtNTYuMzcwNjIxLDEuMzQyNzczNGUtNSkiPgogICAgPHBhdGgKICAgICAgIGQ9Im0gOTUxLjUwMjMxLDE1NS43MTg2MSBxIC0wLjYxNzkzLC0xNy45MiAtMTIuMzU4NjIsLTI5LjY2MDY5IFEgOTI3LjQwMywxMTMuNjk5MyA5MDEuNDQ5OSwxMTMuNjk5MyBxIC0yNy4xODg5NywwIC0zOC45Mjk2NiwxMi45NzY1NSAtMTEuMTIyNzUsMTIuMzU4NjIgLTExLjEyMjc1LDI4LjQyNDgzIDAsMTcuMzAyMDYgMTQuODMwMzQsMjQuNzE3MjQgMTQuODMwMzQsNi43OTcyNCAzNy4wNzU4NiwxMS43NDA2OSAyMi4yNDU1Miw0LjMyNTUxIDQ4LjE5ODYyLDkuMjY4OTYgMjUuOTUzMTEsNC45NDM0NSA0OC4xOTg2MiwxNy4zMDIwNyAyMi4yNDU0NywxMi4zNTg2MiAzNy4wNzU4NywzNS44NCAxNC44MzAzLDIyLjg2MzQ1IDE0LjgzMDMsNjMuMDI4OTcgMCwzMC4yNzg2MiAtMTEuMTIyNyw1NC4zNzc5MyAtMTAuNTA0OCwyNC4wOTkzMSAtMzAuODk2Niw0MS40MDEzNyAtMTkuNzczNzYsMTYuNjg0MTQgLTQ4LjE5ODU5LDI1Ljk1MzExIC0yNy44MDY5LDkuMjY4OTYgLTYxLjc5MzEsOS4yNjg5NiAtMzMuOTg2MjEsMCAtNjEuNzkzMTEsLTkuMjY4OTYgLTI3LjE4ODk2LC04LjY1MTA0IC00Ny41ODA2OSwtMjQuNzE3MjQgLTE5Ljc3Mzc5LC0xNi42ODQxNCAtMzAuODk2NTUsLTQwLjE2NTUyIC0xMS4xMjI3NiwtMjMuNDgxMzggLTExLjc0MDY5LC01My4xNDIwNyBoIDk3LjYzMzExIHEgMCwxOS4xNTU4NiAxMi4zNTg2MiwzMC4yNzg2MiAxMi4zNTg2MiwxMS4xMjI3NiA0Mi4wMTkzMSwxMS4xMjI3NiAyOS42NjA2OSwwIDQyLjAxOTMxLC0xMS4xMjI3NiAxMi4zNTg2MiwtMTEuMTIyNzYgMTIuMzU4NjIsLTMwLjI3ODYyIDAsLTEyLjk3NjU1IC04LjY1MTA0LC0xOS43NzM3OSAtOC42NTEwMywtNy40MTUxNyAtMjIuODYzNDUsLTExLjEyMjc2IC0xMy41OTQ0OCwtNC4zMjU1MiAtMzEuNTE0NDgsLTcuNDE1MTcgLTE3LjkyLC0zLjA4OTY2IC0zNi40NTc5MywtNy40MTUxNyAtMTguNTM3OTMsLTQuMzI1NTIgLTM2LjQ1NzkzLC0xMS43NDA2OSAtMTcuOTIsLTcuNDE1MTggLTMyLjEzMjQxLC0yMC4zOTE3MyAtMTMuNTk0NDksLTEyLjk3NjU1IC0yMi4yNDU1MiwtMzMuMzY4MjcgLTguNjUxMDQsLTIwLjM5MTczIC04LjY1MTA0LC01MC42NzAzNSAwLC0yOC40MjQ4MyAxMC41MDQ4MywtNTIuNTI0MTQgMTAuNTA0ODMsLTI0LjA5OTMwNiAyOS4wNDI3NiwtNDEuNDAxMzc1IDE5LjE1NTg2LC0xNy45MiA0NS43MjY5LC0yNy4xODg5NjYgMjcuMTg4OTYsLTkuODg2ODk2IDU5LjkzOTMxLC05Ljg4Njg5NiAzMS41MTQ0OCwwIDU3LjQ2NzU4LDkuMjY4OTY1IDI2LjU3MTA0LDkuMjY4OTY2IDQ1LjcyNjg4LDI1Ljk1MzEwNCAxOS4xNTU5LDE2LjY4NDEzNyAyOS42NjA3LDQwLjc4MzQ0OCAxMS4xMjI4LDIzLjQ4MTM4IDEyLjM1ODYsNTEuOTA2MjEgeiIKICAgICAgIHN0eWxlPSJmb250LWZhbWlseTpBbGxSb3VuZEdvdGhpY1cwMS1Cb2xkOy1pbmtzY2FwZS1mb250LXNwZWNpZmljYXRpb246J0FsbFJvdW5kR290aGljVzAxLUJvbGQsIE5vcm1hbCc7ZmlsbDojZmZmZmZmO2ZpbGwtb3BhY2l0eToxIgogICAgICAgaWQ9InBhdGg0NDgiIC8+CiAgICA8cGF0aAogICAgICAgZD0ibSAxMTg1LjY5OCwzMTIuMDU1MTYgdiAxLjIzNTg2IHEgNi4xNzkzLDI1LjMzNTE3IDI0LjA5OTMsMzguMzExNzIgMTcuOTIsMTIuMzU4NjIgNDMuODczMSwxMi4zNTg2MiAxOS43NzM4LDAgMzQuNjA0MiwtNC45NDM0NCAxNC44MzAzLC00Ljk0MzQ1IDIzLjQ4MTMsLTE3LjMwMjA3IGggOTUuNzc5MyBxIC0xNC44MzAzLDQ3LjU4MDY5IC01NS42MTM3LDc2LjYyMzQ0IC00MC43ODM1LDI4LjQyNDgzIC05OC4yNTExLDI4LjQyNDgzIC0zNi40NTc5LDAgLTY2LjczNjUsLTExLjc0MDY5IC0yOS42NjA3LC0xMi4zNTg2MiAtNTEuOTA2MiwtMzMuMzY4MjcgLTIxLjYyNzYsLTIxLjYyNzU5IC0zMy45ODYyLC01MS4yODgyOCAtMTEuNzQwNywtMjkuNjYwNjkgLTExLjc0MDcsLTY0LjI2NDgzIDAsLTM0LjYwNDEzIDExLjc0MDcsLTY0LjI2NDgyIDEyLjM1ODYsLTI5LjY2MDY5IDMzLjk4NjIsLTUwLjY3MDM1IDIyLjI0NTUsLTIxLjYyNzU4IDUxLjkwNjIsLTMzLjM2ODI3IDMwLjI3ODYsLTEyLjM1ODYyIDY2LjczNjUsLTEyLjM1ODYyIDM1Ljg0LDAgNjUuNTAwNywxMi4zNTg2MiAzMC4yNzg2LDExLjc0MDY5IDUxLjkwNjIsMzMuMzY4MjcgMjEuNjI3NiwyMS4wMDk2NiAzMy4zNjgzLDUwLjY3MDM1IDExLjc0MDcsMjkuNjYwNjkgMTEuNzQwNyw2NC4yNjQ4MiB2IDI1Ljk1MzExIHogbSA2Ny45NzI0LC0xMDMuODEyNDIgcSAtMjQuMDk5MywwIC00MS40MDE0LDExLjEyMjc2IC0xNy4zMDIsMTEuMTIyNzYgLTI0LjcxNzIsMzIuNzUwMzUgdiAxLjIzNTg2IGggMTMzLjQ3MzEgdiAtMS4yMzU4NiBxIC04LjAzMzEsLTIxLjYyNzU5IC0yNS45NTMxLC0zMi43NTAzNSAtMTcuMzAyMSwtMTEuMTIyNzYgLTQxLjQwMTQsLTExLjEyMjc2IHoiCiAgICAgICBzdHlsZT0iZm9udC1mYW1pbHk6QWxsUm91bmRHb3RoaWNXMDEtQm9sZDstaW5rc2NhcGUtZm9udC1zcGVjaWZpY2F0aW9uOidBbGxSb3VuZEdvdGhpY1cwMS1Cb2xkLCBOb3JtYWwnO2ZpbGw6I2ZmZmZmZjtmaWxsLW9wYWNpdHk6MSIKICAgICAgIGlkPSJwYXRoNDUwIiAvPgogICAgPHBhdGgKICAgICAgIGQ9Im0gMTY4MS44OTY1LDI1My4zNTE3MSBxIC04LjAzMzEsLTE5LjE1NTg2IC0yNS4zMzUxLC0zMC4yNzg2MiAtMTYuNjg0MiwtMTEuMTIyNzYgLTQwLjE2NTUsLTExLjEyMjc2IC0zMS41MTQ1LDAgLTUxLjI4ODMsMjAuMzkxNzIgLTE5LjE1NTksMjAuMzkxNzMgLTE5LjE1NTksNTMuNzYgMCwzMy4zNjgyOCAxOS4xNTU5LDUzLjc2IDE5Ljc3MzgsMjAuMzkxNzMgNTEuMjg4MywyMC4zOTE3MyAyMy40ODEzLDAgNDAuMTY1NSwtMTEuMTIyNzYgMTcuMzAyLC0xMS4xMjI3NiAyNS4zMzUxLC0zMC4yNzg2MiBoIDkzLjkyNTYgcSAtNC45NDM1LDI4LjQyNDgzIC0xOC41MzgsNTEuOTA2MiAtMTMuNTk0NSwyMy40ODEzOCAtMzQuNjA0MSw0MC43ODM0NSAtMjAuMzkxNywxNi42ODQxNCAtNDcuNTgwNywyNS45NTMxMSAtMjcuMTg5LDkuMjY4OTYgLTU4LjcwMzQsOS4yNjg5NiAtMzYuNDU4LDAgLTY2LjczNjYsLTExLjc0MDY5IC0yOS42NjA3LC0xMi4zNTg2MiAtNTEuOTA2MiwtMzMuMzY4MjcgLTIxLjYyNzYsLTIxLjYyNzU5IC0zMy45ODYyLC01MS4yODgyOCAtMTEuNzQwNywtMjkuNjYwNjkgLTExLjc0MDcsLTY0LjI2NDgzIDAsLTM0LjYwNDEzIDExLjc0MDcsLTY0LjI2NDgyIDEyLjM1ODYsLTI5LjY2MDY5IDMzLjk4NjIsLTUwLjY3MDM1IDIyLjI0NTUsLTIxLjYyNzU4IDUxLjkwNjIsLTMzLjM2ODI3IDMwLjI3ODYsLTEyLjM1ODYyIDY2LjczNjYsLTEyLjM1ODYyIDMxLjUxNDQsMCA1OC43MDM0LDkuMjY4OTYgMjcuMTg5LDkuMjY4OTcgNDcuNTgwNywyNi41NzEwNCAyMS4wMDk2LDE2LjY4NDEzIDM0LjYwNDEsNDAuMTY1NTEgMTMuNTk0NSwyMy40ODEzOCAxOC41MzgsNTEuOTA2MjEgeiIKICAgICAgIHN0eWxlPSJmb250LWZhbWlseTpBbGxSb3VuZEdvdGhpY1cwMS1Cb2xkOy1pbmtzY2FwZS1mb250LXNwZWNpZmljYXRpb246J0FsbFJvdW5kR290aGljVzAxLUJvbGQsIE5vcm1hbCc7ZmlsbDojZmZmZmZmO2ZpbGwtb3BhY2l0eToxIgogICAgICAgaWQ9InBhdGg0NTIiIC8+CiAgICA8cGF0aAogICAgICAgZD0ibSAyMjQzLjU5NTksMjM2LjY2NzU3IHEgMCw0NS43MjY5IC0xNi4wNjYyLDg0LjAzODYyIC0xNS40NDgzLDM4LjMxMTczIC00NC40OTExLDY2LjczNjU1IC0yOC40MjQ4LDI3LjgwNjkgLTY3Ljk3MjQsNDMuODczMTEgLTM5LjU0NzYsMTUuNDQ4MjcgLTg2LjUxMDMsMTUuNDQ4MjcgLTQ3LjU4MDcsMCAtODcuMTI4MywtMTUuNDQ4MjcgLTM4LjkyOTcsLTE2LjA2NjIxIC02Ny45NzI0LC00My44NzMxMSAtMjguNDI0OCwtMjguNDI0ODIgLTQ0LjQ5MSwtNjYuNzM2NTUgLTE1LjQ0ODMsLTM4LjMxMTcyIC0xNS40NDgzLC04NC4wMzg2MiAwLC00NS4xMDg5NiAxNS40NDgzLC04My40MjA2OSAxNi4wNjYyLC0zOC45Mjk2NSA0NC40OTEsLTY2LjczNjU0OSAyOS4wNDI3LC0yOC40MjQ4MjggNjcuOTcyNCwtNDMuODczMTAzIDM5LjU0NzYsLTE2LjA2NjIwNyA4Ny4xMjgzLC0xNi4wNjYyMDcgNDYuOTYyNywwIDg2LjUxMDMsMTYuMDY2MjA3IDM5LjU0NzYsMTUuNDQ4Mjc1IDY3Ljk3MjQsNDMuODczMTAzIDI5LjA0MjgsMjcuODA2ODk5IDQ0LjQ5MTEsNjYuNzM2NTQ5IDE2LjA2NjIsMzguMzExNzMgMTYuMDY2Miw4My40MjA2OSB6IG0gLTIxNS4wNCwxMTcuNDA2OSBxIDI1Ljk1MzEsMCA0Ni45NjI3LC04LjY1MTA0IDIxLjAwOTcsLTguNjUxMDMgMzUuODQsLTI0LjA5OTMxIDE0LjgzMDQsLTE2LjA2NjIgMjIuODYzNSwtMzcuNjkzNzkgOC4wMzMxLC0yMS42Mjc1OSA4LjAzMzEsLTQ2Ljk2Mjc2IDAsLTI1LjMzNTE3IC04LjAzMzEsLTQ2Ljk2Mjc2IC04LjAzMzEsLTIxLjYyNzU4IC0yMi44NjM1LC0zNy4wNzU4NiAtMTQuODMwMywtMTYuMDY2MjEgLTM1Ljg0LC0yNC43MTcyNCAtMjEuMDA5NiwtOC42NTEwMyAtNDYuOTYyNywtOC42NTEwMyAtMjUuOTUzMSwwIC00Ni45NjI4LDguNjUxMDMgLTIxLjAwOTYsOC42NTEwMyAtMzUuODQsMjQuNzE3MjQgLTE0LjgzMDMsMTUuNDQ4MjggLTIyLjg2MzQsMzcuMDc1ODYgLTguMDMzMSwyMS42Mjc1OSAtOC4wMzMxLDQ2Ljk2Mjc2IDAsMjUuMzM1MTcgOC4wMzMxLDQ2Ljk2Mjc2IDguMDMzMSwyMS42Mjc1OSAyMi44NjM0LDM3LjY5Mzc5IDE0LjgzMDQsMTUuNDQ4MjggMzUuODQsMjQuMDk5MzEgMjEuMDA5Nyw4LjY1MTA0IDQ2Ljk2MjgsOC42NTEwNCB6IgogICAgICAgc3R5bGU9ImZvbnQtZmFtaWx5OkFsbFJvdW5kR290aGljVzAxLUJvbGQ7LWlua3NjYXBlLWZvbnQtc3BlY2lmaWNhdGlvbjonQWxsUm91bmRHb3RoaWNXMDEtQm9sZCwgTm9ybWFsJztmaWxsOiNmZmZmZmY7ZmlsbC1vcGFjaXR5OjEiCiAgICAgICBpZD0icGF0aDQ1NCIgLz4KICAgIDxwYXRoCiAgICAgICBkPSJtIDIyOTQuODg0MSwtMS4zNDI3NzM0ZS01IGggOTIuNjg5NiBWIDE2NC45ODc1NyBoIDEuMjM1OSBxIDEyLjk3NjYsLTE3LjkyIDM1LjIyMjEsLTI4LjQyNDgzIDIyLjI0NTUsLTExLjEyMjc1IDUxLjkwNjIsLTExLjEyMjc1IDI0LjA5OTMsMCA1MC4wNTI0LDkuMjY4OTYgMjUuOTUzMSw5LjI2ODk3IDQ2Ljk2MjgsMjkuMDQyNzYgMjEuNjI3NSwxOS4xNTU4NiAzNS4yMjIsNDkuNDM0NDggMTQuMjEyNCwzMC4yNzg2MiAxNC4yMTI0LDcyLjkxNTg2IDAsMzQuNjA0MTQgLTEyLjM1ODYsNjQuMjY0ODMgLTExLjc0MDcsMjkuNjYwNjkgLTMzLjk4NjIsNTEuMjg4MjggLTIxLjYyNzYsMjEuMDA5NjUgLTUxLjkwNjIsMzMuMzY4MjcgLTMwLjI3ODYsMTEuNzQwNjkgLTY2LjExODYsMTEuNzQwNjkgLTM2LjQ1NzksMCAtNjYuNzM2NiwtMTEuMTIyNzYgLTI5LjY2MDcsLTExLjc0MDY5IC01MS4yODgyLC0zMi43NTAzNCAtMjEuMDA5NywtMjEuNjI3NTkgLTMzLjM2ODMsLTUxLjkwNjIxIC0xMS43NDA3LC0zMC4yNzg2MiAtMTEuNzQwNywtNjcuOTcyNDEgeiBNIDI0NTguMDE3OSwzNjAuMjUzNzggcSAzMS41MTQ1LDAgNTAuNjcwMywtMjAuMzkxNzMgMTkuNzczOCwtMjAuMzkxNzIgMTkuNzczOCwtNTMuNzYgMCwtMzMuMzY4MjcgLTE5Ljc3MzgsLTUzLjc2IC0xOS4xNTU4LC0yMC4zOTE3MiAtNTAuNjcwMywtMjAuMzkxNzIgLTMxLjUxNDUsMCAtNTEuMjg4MywyMC4zOTE3MiAtMTkuMTU1OSwyMC4zOTE3MyAtMTkuMTU1OSw1My43NiAwLDMzLjM2ODI4IDE5LjE1NTksNTMuNzYgMTkuNzczOCwyMC4zOTE3MyA1MS4yODgzLDIwLjM5MTczIHoiCiAgICAgICBzdHlsZT0iZm9udC1mYW1pbHk6QWxsUm91bmRHb3RoaWNXMDEtQm9sZDstaW5rc2NhcGUtZm9udC1zcGVjaWZpY2F0aW9uOidBbGxSb3VuZEdvdGhpY1cwMS1Cb2xkLCBOb3JtYWwnO2ZpbGw6I2ZmZmZmZjtmaWxsLW9wYWNpdHk6MSIKICAgICAgIGlkPSJwYXRoNDU2IiAvPgogICAgPHBhdGgKICAgICAgIGQ9Im0gMjgyMi41OTcsMjI0LjMwODk1IHEgLTEuODUzOCwtMTAuNTA0ODMgLTEwLjUwNDgsLTE2LjA2NjIxIC04LjY1MSwtNi4xNzkzMSAtMjIuMjQ1NSwtNi4xNzkzMSAtMTcuOTIsMCAtMjUuMzM1Miw3LjQxNTE4IC03LjQxNTIsNy40MTUxNyAtNy40MTUyLDE4LjUzNzkzIDAsMTAuNTA0ODIgMTEuNzQwNywxNC44MzAzNCAxMi4zNTg2LDQuMzI1NTIgMzAuMjc4Niw3LjQxNTE3IDE3LjkyLDMuMDg5NjYgMzguOTI5Nyw2Ljc5NzI1IDIxLjAwOTcsMy43MDc1OCAzOC45Mjk3LDEyLjk3NjU1IDE3LjkyLDkuMjY4OTYgMjkuNjYwNiwyNi41NzEwMyAxMi4zNTg3LDE3LjMwMjA3IDEyLjM1ODcsNDcuNTgwNjkgMCwyMi4yNDU1MiAtOS4yNjksNDEuNDAxMzggLTkuMjY5LDE4LjUzNzkzIC0yNi41NzEsMzIuMTMyNDEgLTE2LjY4NDIsMTMuNTk0NDkgLTQwLjc4MzUsMjEuMDA5NjYgLTI0LjA5OTMsOC4wMzMxIC01My43Niw4LjAzMzEgLTI5LjY2MDcsMCAtNTMuNzYsLTcuNDE1MTcgLTIzLjQ4MTQsLTcuNDE1MTcgLTQwLjc4MzQsLTIxLjAwOTY2IC0xNi42ODQyLC0xMy41OTQ0OCAtMjUuOTUzMSwtMzEuNTE0NDggLTkuMjY5LC0xOC41Mzc5MyAtOS44ODY5LC00MC43ODM0NSBoIDkxLjQ1MzggcSAwLjYxNzksMjQuMDk5MzEgMzcuNjkzOCwyNC4wOTkzMSAyMi4yNDU1LDAgMjkuNjYwNiwtNi43OTcyNCA4LjAzMzIsLTYuNzk3MjQgOC4wMzMyLC0xOS4xNTU4NiAwLC0xMC41MDQ4MyAtMTIuMzU4NywtMTQuODMwMzQgLTExLjc0MDcsLTQuMzI1NTIgLTI5LjY2MDcsLTcuNDE1MTggLTE3LjkyLC0zLjA4OTY1IC0zOC45Mjk2LC02Ljc5NzI0IC0yMS4wMDk3LC0zLjcwNzU4IC0zOC45Mjk3LC0xMi45NzY1NSAtMTcuOTIsLTkuMjY4OTcgLTMwLjI3ODYsLTI2LjU3MTAzIC0xMS43NDA3LC0xNy4zMDIwNyAtMTEuNzQwNywtNDcuNTgwNjkgMCwtMjIuMjQ1NTIgOC42NTExLC00MC43ODM0NSA5LjI2ODksLTE4LjUzNzkzIDI1LjMzNTEsLTMyLjEzMjQxIDE2LjA2NjIsLTE0LjIxMjQyIDM4LjkyOTcsLTIxLjYyNzU5IDIzLjQ4MTQsLTguMDMzMSA1MS45MDYyLC04LjAzMzEgMjguNDI0OCwwIDUxLjI4ODMsOC4wMzMxIDIyLjg2MzQsNy40MTUxNyAzOC45Mjk2LDIxLjAwOTY1IDE2LjA2NjIsMTIuOTc2NTYgMjQuNzE3MywzMS41MTQ0OSA5LjI2ODksMTcuOTIgOS44ODY5LDM4LjMxMTcyIHoiCiAgICAgICBzdHlsZT0iZm9udC1mYW1pbHk6QWxsUm91bmRHb3RoaWNXMDEtQm9sZDstaW5rc2NhcGUtZm9udC1zcGVjaWZpY2F0aW9uOidBbGxSb3VuZEdvdGhpY1cwMS1Cb2xkLCBOb3JtYWwnO2ZpbGw6I2ZmZmZmZjtmaWxsLW9wYWNpdHk6MSIKICAgICAgIGlkPSJwYXRoNDU4IiAvPgogICAgPHBhdGgKICAgICAgIGQ9Im0gMzA1MS4yMzEzLDMxMi4wNTUxNiB2IDEuMjM1ODYgcSA2LjE3OTMsMjUuMzM1MTcgMjQuMDk5MywzOC4zMTE3MiAxNy45MiwxMi4zNTg2MiA0My44NzMxLDEyLjM1ODYyIDE5Ljc3MzgsMCAzNC42MDQyLC00Ljk0MzQ0IDE0LjgzMDMsLTQuOTQzNDUgMjMuNDgxMywtMTcuMzAyMDcgaCA5NS43NzkzIHEgLTE0LjgzMDMsNDcuNTgwNjkgLTU1LjYxMzcsNzYuNjIzNDQgLTQwLjc4MzUsMjguNDI0ODMgLTk4LjI1MTEsMjguNDI0ODMgLTM2LjQ1NzksMCAtNjYuNzM2NSwtMTEuNzQwNjkgLTI5LjY2MDcsLTEyLjM1ODYyIC01MS45MDYyLC0zMy4zNjgyNyAtMjEuNjI3NiwtMjEuNjI3NTkgLTMzLjk4NjIsLTUxLjI4ODI4IC0xMS43NDA3LC0yOS42NjA2OSAtMTEuNzQwNywtNjQuMjY0ODMgMCwtMzQuNjA0MTMgMTEuNzQwNywtNjQuMjY0ODIgMTIuMzU4NiwtMjkuNjYwNjkgMzMuOTg2MiwtNTAuNjcwMzUgMjIuMjQ1NSwtMjEuNjI3NTggNTEuOTA2MiwtMzMuMzY4MjcgMzAuMjc4NiwtMTIuMzU4NjIgNjYuNzM2NSwtMTIuMzU4NjIgMzUuODQsMCA2NS41MDA3LDEyLjM1ODYyIDMwLjI3ODYsMTEuNzQwNjkgNTEuOTA2MiwzMy4zNjgyNyAyMS42Mjc2LDIxLjAwOTY2IDMzLjM2ODMsNTAuNjcwMzUgMTEuNzQwNywyOS42NjA2OSAxMS43NDA3LDY0LjI2NDgyIHYgMjUuOTUzMTEgeiBtIDY3Ljk3MjQsLTEwMy44MTI0MiBxIC0yNC4wOTkzLDAgLTQxLjQwMTQsMTEuMTIyNzYgLTE3LjMwMiwxMS4xMjI3NiAtMjQuNzE3MiwzMi43NTAzNSB2IDEuMjM1ODYgaCAxMzMuNDczMSB2IC0xLjIzNTg2IHEgLTguMDMzMSwtMjEuNjI3NTkgLTI1Ljk1MzEsLTMyLjc1MDM1IC0xNy4zMDIxLC0xMS4xMjI3NiAtNDEuNDAxNCwtMTEuMTIyNzYgeiIKICAgICAgIHN0eWxlPSJmb250LWZhbWlseTpBbGxSb3VuZEdvdGhpY1cwMS1Cb2xkOy1pbmtzY2FwZS1mb250LXNwZWNpZmljYXRpb246J0FsbFJvdW5kR290aGljVzAxLUJvbGQsIE5vcm1hbCc7ZmlsbDojZmZmZmZmO2ZpbGwtb3BhY2l0eToxIgogICAgICAgaWQ9InBhdGg0NjAiIC8+CiAgICA8cGF0aAogICAgICAgZD0ibSAzNTExLjU4OTcsMjY3LjU2NDEyIHYgLTIuNDcxNzIgcSAwLC0zMC44OTY1NSAtMTIuMzU4NiwtNDIuMDE5MzEgLTEyLjM1ODYsLTExLjEyMjc2IC0zMi4xMzI0LC0xMS4xMjI3NiAtMTkuNzczOCwwIC0zMi4xMzI0LDExLjEyMjc2IC0xMi4zNTg2LDExLjEyMjc2IC0xMi4zNTg2LDQyLjAxOTMxIFYgNDM4LjczMTAyIEggMzMyOS45MTggViAyNjUuMDkyNCBxIDAsLTM1Ljg0IDkuODg2OSwtNjEuNzkzMSA5Ljg4NjksLTI2LjU3MTA0IDI3LjgwNjksLTQzLjg3MzExIDE4LjUzNzksLTE3LjMwMjA3IDQzLjI1NTIsLTI1LjMzNTE3IDI1LjMzNTIsLTguNjUxMDMgNTYuMjMxNywtOC42NTEwMyAzMC44OTY2LDAgNTYuMjMxNyw4LjY1MTAzIDI1LjMzNTIsOC4wMzMxIDQzLjI1NTIsMjUuOTUzMSAxNy45MiwxNy4zMDIwNyAyNy44MDY5LDQ0LjQ5MTA0IDkuODg2OSwyNi41NzEwMyA5Ljg4NjksNjMuMDI4OTYgeiIKICAgICAgIHN0eWxlPSJmb250LWZhbWlseTpBbGxSb3VuZEdvdGhpY1cwMS1Cb2xkOy1pbmtzY2FwZS1mb250LXNwZWNpZmljYXRpb246J0FsbFJvdW5kR290aGljVzAxLUJvbGQsIE5vcm1hbCc7ZmlsbDojZmZmZmZmO2ZpbGwtb3BhY2l0eToxIgogICAgICAgaWQ9InBhdGg0NjIiIC8+CiAgICA8cGF0aAogICAgICAgZD0iTSAzNzIyLjkyMTgsNDM4LjczMTAyIDM2MTMuNTQ4LDEzMy40NzMwOSBoIDk5LjQ4NjkgbCA2Ni43MzY2LDIxNS4wNCBoIDEuMjM1OCBsIDY2LjczNjYsLTIxNS4wNCBoIDk3LjAxNTEgbCAtMTA5LjM3MzgsMzA1LjI1NzkzIHoiCiAgICAgICBzdHlsZT0iZm9udC1mYW1pbHk6QWxsUm91bmRHb3RoaWNXMDEtQm9sZDstaW5rc2NhcGUtZm9udC1zcGVjaWZpY2F0aW9uOidBbGxSb3VuZEdvdGhpY1cwMS1Cb2xkLCBOb3JtYWwnO2ZpbGw6I2ZmZmZmZjtmaWxsLW9wYWNpdHk6MSIKICAgICAgIGlkPSJwYXRoNDY0IiAvPgogICAgPHBhdGgKICAgICAgIGQ9Im0gNDA1My41MTQsMzEyLjA1NTE2IHYgMS4yMzU4NiBxIDYuMTc5MywyNS4zMzUxNyAyNC4wOTkzLDM4LjMxMTcyIDE3LjkyLDEyLjM1ODYyIDQzLjg3MzEsMTIuMzU4NjIgMTkuNzczOCwwIDM0LjYwNDIsLTQuOTQzNDQgMTQuODMwMywtNC45NDM0NSAyMy40ODEzLC0xNy4zMDIwNyBoIDk1Ljc3OTQgcSAtMTQuODMwNCw0Ny41ODA2OSAtNTUuNjEzOCw3Ni42MjM0NCAtNDAuNzgzNSwyOC40MjQ4MyAtOTguMjUxMSwyOC40MjQ4MyAtMzYuNDU3OSwwIC02Ni43MzY1LC0xMS43NDA2OSAtMjkuNjYwNywtMTIuMzU4NjIgLTUxLjkwNjIsLTMzLjM2ODI3IC0yMS42Mjc2LC0yMS42Mjc1OSAtMzMuOTg2MiwtNTEuMjg4MjggLTExLjc0MDcsLTI5LjY2MDY5IC0xMS43NDA3LC02NC4yNjQ4MyAwLC0zNC42MDQxMyAxMS43NDA3LC02NC4yNjQ4MiAxMi4zNTg2LC0yOS42NjA2OSAzMy45ODYyLC01MC42NzAzNSAyMi4yNDU1LC0yMS42Mjc1OCA1MS45MDYyLC0zMy4zNjgyNyAzMC4yNzg2LC0xMi4zNTg2MiA2Ni43MzY1LC0xMi4zNTg2MiAzNS44NCwwIDY1LjUwMDcsMTIuMzU4NjIgMzAuMjc4NiwxMS43NDA2OSA1MS45MDYyLDMzLjM2ODI3IDIxLjYyNzYsMjEuMDA5NjYgMzMuMzY4Myw1MC42NzAzNSAxMS43NDA3LDI5LjY2MDY5IDExLjc0MDcsNjQuMjY0ODIgdiAyNS45NTMxMSB6IG0gNjcuOTcyNCwtMTAzLjgxMjQyIHEgLTI0LjA5OTMsMCAtNDEuNDAxMywxMS4xMjI3NiAtMTcuMzAyMSwxMS4xMjI3NiAtMjQuNzE3MywzMi43NTAzNSB2IDEuMjM1ODYgaCAxMzMuNDczMSB2IC0xLjIzNTg2IHEgLTguMDMzMSwtMjEuNjI3NTkgLTI1Ljk1MzEsLTMyLjc1MDM1IC0xNy4zMDIxLC0xMS4xMjI3NiAtNDEuNDAxNCwtMTEuMTIyNzYgeiIKICAgICAgIHN0eWxlPSJmb250LWZhbWlseTpBbGxSb3VuZEdvdGhpY1cwMS1Cb2xkOy1pbmtzY2FwZS1mb250LXNwZWNpZmljYXRpb246J0FsbFJvdW5kR290aGljVzAxLUJvbGQsIE5vcm1hbCc7ZmlsbDojZmZmZmZmO2ZpbGwtb3BhY2l0eToxIgogICAgICAgaWQ9InBhdGg0NjYiIC8+CiAgPC9nPgogIDxnCiAgICAgaWQ9Imc0IgogICAgIHRyYW5zZm9ybT0ic2NhbGUoMTQuOTMzMzM0LDE1LjAzMzU1NykiCiAgICAgc3R5bGU9ImZpbGw6I2ZmZmZmZjtmaWxsLW9wYWNpdHk6MSI+CiAgICA8cGF0aAogICAgICAgZD0ibSAxOC43LDE3LjkgYyAtMC41LDAgLTAuNywtMC40IC0wLjcsLTEgViA2IGggOCBsIDQsMTUgdiAxIDYuOCBjIDAsMC41IC0wLjQsMSAtMSwxIGggLTguNCBjIC0wLjUsMCAtMC42LC0wLjQgLTAuNiwtMSBWIDE3LjkgWiIKICAgICAgIGlkPSJwYXRoMSIKICAgICAgIHN0eWxlPSJmaWxsOiNmZmZmZmY7ZmlsbC1vcGFjaXR5OjEiIC8+CiAgICA8cGF0aAogICAgICAgZD0ibSAxMS4zLDE3LjkgYyAwLjUsMCAwLjcsLTAuNCAwLjcsLTEgViA2IEggNCBMIDAsMjEgdiAxIDYuOCBjIDAsMC41IDAuNCwxIDEsMSBoIDguNCBjIDAuNSwwIDAuNywtMC40IDAuNywtMSBWIDE3LjkgWiIKICAgICAgIGlkPSJwYXRoMiIKICAgICAgIHN0eWxlPSJmaWxsOiNmZmZmZmY7ZmlsbC1vcGFjaXR5OjEiIC8+CiAgICA8cGF0aAogICAgICAgZD0iTSA3LDQgViAxIEMgNywwLjUgNy40LDAgOCwwIGggMyBjIDAuNSwwIDEsMC40IDEsMSB2IDMgeiIKICAgICAgIGlkPSJwYXRoMyIKICAgICAgIHN0eWxlPSJmaWxsOiNmZmZmZmY7ZmlsbC1vcGFjaXR5OjEiIC8+CiAgICA8cGF0aAogICAgICAgZD0iTSAxOCw0IFYgMSBjIDAsLTAuNSAwLjQsLTEgMSwtMSBoIDMgYyAwLjUsMCAxLDAuNCAxLDEgdiAzIHoiCiAgICAgICBpZD0icGF0aDQiCiAgICAgICBzdHlsZT0iZmlsbDojZmZmZmZmO2ZpbGwtb3BhY2l0eToxIiAvPgogICAgPHJlY3QKICAgICAgIHg9IjE0IgogICAgICAgeT0iNiIKICAgICAgIHdpZHRoPSIyIgogICAgICAgaGVpZ2h0PSIxMSIKICAgICAgIGlkPSJyZWN0NCIKICAgICAgIHN0eWxlPSJmaWxsOiNmZmZmZmY7ZmlsbC1vcGFjaXR5OjEiIC8+CiAgPC9nPgo8L3N2Zz4K;html=1;whiteSpace=wrap;convertToSvg=0;" parent="1" vertex="1">
          <mxGeometry x="502.03" y="287.5" width="235.94" height="25" as="geometry" />
        </mxCell>
        <mxCell id="eXSKlC2B0oTyvs4yx1Oc-2" value="&lt;span&gt;&lt;span style=&quot;color: rgb(0, 0, 0); font-family: Poppins; font-size: 12px; font-style: normal; font-variant-ligatures: normal; font-variant-caps: normal; font-weight: 400; letter-spacing: normal; orphans: 2; text-indent: 0px; text-transform: none; widows: 2; word-spacing: 0px; -webkit-text-stroke-width: 0px; white-space: normal; text-decoration-thickness: initial; text-decoration-style: initial; text-decoration-color: initial; float: none; display: inline !important;&quot;&gt;View observations and licenses&lt;/span&gt;&lt;br style=&quot;forced-color-adjust: none; color: rgb(0, 0, 0); font-family: Poppins; font-size: 12px; font-style: normal; font-variant-ligatures: normal; font-variant-caps: normal; font-weight: 400; letter-spacing: normal; orphans: 2; text-indent: 0px; text-transform: none; widows: 2; word-spacing: 0px; -webkit-text-stroke-width: 0px; white-space: normal; text-decoration-thickness: initial; text-decoration-style: initial; text-decoration-color: initial;&quot;&gt;&lt;span style=&quot;color: rgb(0, 0, 0); font-family: Poppins; font-size: 12px; font-style: normal; font-variant-ligatures: normal; font-variant-caps: normal; font-weight: 400; letter-spacing: normal; orphans: 2; text-indent: 0px; text-transform: none; widows: 2; word-spacing: 0px; -webkit-text-stroke-width: 0px; white-space: normal; text-decoration-thickness: initial; text-decoration-style: initial; text-decoration-color: initial; float: none; display: inline !important;&quot;&gt;Assess observations and licenses&lt;/span&gt;&lt;br style=&quot;forced-color-adjust: none; color: rgb(0, 0, 0); font-family: Poppins; font-size: 12px; font-style: normal; font-variant-ligatures: normal; font-variant-caps: normal; font-weight: 400; letter-spacing: normal; orphans: 2; text-indent: 0px; text-transform: none; widows: 2; word-spacing: 0px; -webkit-text-stroke-width: 0px; white-space: normal; text-decoration-thickness: initial; text-decoration-style: initial; text-decoration-color: initial;&quot;&gt;&lt;span style=&quot;color: rgb(0, 0, 0); font-family: Poppins; font-size: 12px; font-style: normal; font-variant-ligatures: normal; font-variant-caps: normal; font-weight: 400; letter-spacing: normal; orphans: 2; text-indent: 0px; text-transform: none; widows: 2; word-spacing: 0px; -webkit-text-stroke-width: 0px; white-space: normal; text-decoration-thickness: initial; text-decoration-style: initial; text-decoration-color: initial; float: none; display: inline !important;&quot;&gt;Upload reports manually&lt;/span&gt;&lt;/span&gt;" style="text;whiteSpace=wrap;html=1;align=center;verticalAlign=middle;convertToSvg=0;" parent="1" vertex="1">
          <mxGeometry x="505" y="190" width="230" height="60" as="geometry" />
        </mxCell>
      </root>
    </mxGraphModel>
  </diagram>
</mxfile>
